<svg width="41" height="41" viewBox="0 0 41 41" fill="none" xmlns="http://www.w3.org/2000/svg">
<path d="M40.9936 26.8137C40.644 26.8836 40.2595 26.9186 39.875 26.9186C38.6166 26.9186 37.4631 26.5689 36.4493 25.9045C35.156 25.0653 34.2122 23.7365 33.7927 22.1629C33.6878 21.6733 33.6179 21.1838 33.6179 20.6593C33.6179 20.3096 33.8976 20.0298 34.2471 20.0298C34.5967 20.0298 34.8763 20.3096 34.8763 20.6593C34.8763 21.0789 34.9113 21.4635 35.0162 21.8482C35.4007 23.4567 36.5542 24.7156 38.0573 25.3101C38.5117 23.7365 38.7215 22.093 38.7215 20.3795C38.7215 9.88895 29.9126 1.46154 19.286 2.12594C10.1276 2.68543 2.717 10.1687 2.22762 19.3304C1.80815 27.1634 6.2825 34.0172 12.9241 37.0245C13.2737 37.1644 13.6232 36.8147 13.4834 36.465C12.8891 35.2411 12.6794 33.8074 12.9591 32.3038C13.4484 29.5762 15.6506 27.3732 18.3772 26.8836C22.7117 26.0794 26.4869 29.4014 26.4869 33.5626C26.4869 34.7166 26.2073 35.8006 25.683 36.7448C25.5781 36.9196 25.8228 37.1294 25.9976 36.9896C29.0038 34.4368 31.1011 30.8701 31.7653 26.7787C30.9263 25.9395 30.2971 24.9254 29.9126 23.8064C28.2697 24.7156 26.3821 25.2052 24.4595 25.2052C18.2374 25.2052 13.1688 20.1347 13.1688 13.9103C13.1688 10.4135 14.7768 7.12643 17.5383 4.99336C17.8179 4.78354 18.2024 4.81851 18.4122 5.09826C18.6219 5.34304 18.5869 5.72769 18.3422 5.93751C17.1188 7.02153 15.8953 8.21046 15.2661 9.71411C12.225 16.9876 17.5033 23.9463 24.3896 23.9463C26.1723 23.9463 27.9201 23.4917 29.4582 22.5825C29.4931 22.5825 29.4931 22.5476 29.5281 22.5476C29.4582 22.093 29.4232 21.6384 29.4232 21.1838C29.4232 20.4494 28.829 19.855 28.0949 19.855C27.7453 19.855 27.4657 19.5752 27.4657 19.2255C27.4657 18.8759 27.7453 18.5961 28.0949 18.5961C29.5281 18.5961 30.6816 19.7501 30.6816 21.1838C30.6816 24.4359 33.0237 27.1634 36.0998 27.7579C36.5193 27.8278 36.9387 27.8628 37.3582 27.8628C38.6865 27.8977 39.9449 27.4781 40.9936 26.8137ZM30.8215 16.1483C30.0175 16.1483 29.3533 15.4839 29.3533 14.6796C29.3533 13.8754 30.0175 13.211 30.8215 13.211C31.6254 13.211 32.2896 13.8754 32.2896 14.6796C32.2896 15.4839 31.6254 16.1483 30.8215 16.1483Z" fill="#E9892E"/>
<path d="M31.7303 31.1848C30.8214 33.3528 29.5281 35.2761 27.8502 36.9546C27.7803 37.0245 27.8502 37.0944 27.9201 37.0595C31.5905 35.4159 34.5967 32.6185 36.4843 29.1216C35.121 28.9817 33.8626 28.4922 32.779 27.7578C32.5692 28.9118 32.2197 30.0658 31.7303 31.1848Z" fill="#E9892E"/>
</svg>
